Coordinates
version=1
nRows=12
nColumns=33
inDegrees=yes

Units are S.I. units (second, meters, Newtons, ...)
Angles are in degrees.

endheader
time	ground_thorax_rot_x	ground_thorax_rot_y	ground_thorax_rot_z	ground_thorax_tx	ground_thorax_ty	ground_thorax_tz	clav_prot_r	clav_elev_r	scapula_abduction_r	scapula_elevation_r	scapula_upward_rot_r	scapula_winging_r	shoulder_elv_r	plane_of_elev_r	axial_rot_r	elbow_flexion_r	pro_sup_r	wrist_flex_r	wrist_dev_r	clav_prot_l	clav_elev_l	scapula_abduction_l	scapula_elevation_l	scapula_upward_rot_l	scapula_winging_l	shoulder_elv_l	plane_of_elev_l	axial_rot_l	elbow_flexion_l	pro_sup_l	wrist_flex_l	wrist_dev_l	
2.2100	1.458774	-0.820908	-9.401349	-0.069272	1.049922	0.002328	-12.053192	-6.516090	-11.132670	-0.842699	7.264496	-0.353191	60.160024	-51.325691	70.610408	65.269289	0.540201	32.882072	-3.186536	-7.891392	-4.113350	8.057840	-4.694217	-4.899557	-1.650340	56.719038	-55.181147	-48.302066	64.995061	-0.515927	-15.642971	-25.000000	
2.2200	1.471550	-0.835547	-9.370696	-0.069056	1.049831	0.002265	-12.031952	-6.479912	-11.118581	-0.799018	7.233802	-0.361426	60.141197	-51.303863	70.528664	65.285202	0.746639	33.111025	-3.355053	-7.867726	-4.153092	7.984635	-4.635461	-4.838355	-1.634863	56.613360	-55.251153	-48.259131	65.014341	-0.405388	-15.726262	-25.000000	
2.2300	1.492716	-0.852830	-9.344329	-0.068844	1.049733	0.002212	-12.002387	-6.425875	-11.097133	-0.735754	7.195390	-0.376728	60.122570	-51.273904	70.416173	65.305550	1.034598	33.428629	-3.590351	-7.834211	-4.198865	7.882601	-4.561335	-4.750967	-1.609841	56.474683	-55.353928	-48.199229	65.038033	-0.248051	-15.844170	-25.000000	
2.2400	1.521187	-0.870702	-9.326517	-0.068642	1.049646	0.002173	-11.966696	-6.354324	-11.066848	-0.658639	7.161352	-0.398832	60.107001	-51.233612	70.279825	65.358549	1.386719	33.820799	-3.879870	-7.790281	-4.243626	7.753850	-4.479587	-4.639012	-1.576355	56.314515	-55.476752	-48.131777	65.073968	-0.046582	-15.991685	-25.000000	
2.2500	1.545807	-0.886620	-9.318812	-0.068442	1.049578	0.002141	-11.935726	-6.280507	-11.034383	-0.587177	7.149274	-0.425875	60.102470	-51.192097	70.156947	65.458872	1.713625	34.191862	-4.152865	-7.745567	-4.274918	7.626799	-4.410405	-4.527371	-1.540237	56.175153	-55.578029	-48.080991	65.125215	0.156265	-16.134361	-25.000000	
2.2600	1.567843	-0.900069	-9.325294	-0.068249	1.049491	0.002126	-11.912666	-6.199528	-11.000990	-0.520677	7.169827	-0.461468	60.116571	-51.152617	70.055310	65.638444	2.009368	34.540317	-4.407952	-7.699542	-4.285996	7.501689	-4.359629	-4.415288	-1.499872	56.062193	-55.649666	-48.058308	65.203938	0.368991	-16.274052	-25.000000	
2.2700	1.580600	-0.906684	-9.339011	-0.068054	1.049414	0.002112	-11.905669	-6.125348	-10.973269	-0.474981	7.232281	-0.501974	60.157264	-51.123235	70.005350	65.893610	2.205993	34.790355	-4.593380	-7.661807	-4.271352	7.403908	-4.339543	-4.322755	-1.461955	56.006232	-55.663110	-48.080295	65.308604	0.558929	-16.386553	-24.999999	
2.2800	1.596108	-0.902273	-9.357602	-0.067864	1.049286	0.002111	-11.916367	-6.043603	-10.952345	-0.440264	7.345756	-0.554268	60.243245	-51.113739	70.019837	66.260279	2.333808	34.973015	-4.742581	-7.628149	-4.227565	7.323263	-4.349605	-4.240186	-1.422065	55.998355	-55.618057	-48.166540	65.448234	0.773545	-16.495876	-24.999999	
2.2900	1.611600	-0.888389	-9.375853	-0.067671	1.049142	0.002108	-11.942231	-5.962169	-10.938238	-0.419480	7.498074	-0.613036	60.369405	-51.115598	70.091253	66.711210	2.401739	35.093598	-4.867555	-7.602053	-4.164618	7.262892	-4.379641	-4.164851	-1.382738	56.033420	-55.529563	-48.300454	65.622320	1.008539	-16.610408	-24.999998	
2.3000	1.634801	-0.870438	-9.396290	-0.067479	1.048948	0.002118	-11.976126	-5.868743	-10.927323	-0.396981	7.676422	-0.680694	60.535113	-51.118731	70.191408	67.256292	2.480073	35.230238	-5.036921	-7.576039	-4.093559	7.199043	-4.411254	-4.074335	-1.338347	56.081188	-55.434673	-48.465653	65.840664	1.303635	-16.767866	-24.999997	
2.3100	1.653315	-0.855318	-9.417626	-0.067277	1.048770	0.002128	-12.014537	-5.781181	-10.918836	-0.382408	7.862476	-0.747694	60.721231	-51.106109	70.299303	67.854629	2.548601	35.361762	-5.237124	-7.555058	-4.026669	7.139600	-4.435201	-3.973911	-1.294049	56.145714	-55.348067	-48.633626	66.099257	1.612422	-16.956584	-24.999995	
2.3200	1.675109	-0.842292	-9.435658	-0.067067	1.048594	0.002151	-12.060291	-5.698093	-10.917637	-0.374835	8.056828	-0.814098	60.952487	-51.082303	70.433136	68.534977	2.603245	35.477338	-5.498167	-7.536978	-3.969280	7.079866	-4.446878	-3.864267	-1.250281	56.235068	-55.272293	-48.829189	66.399951	1.958808	-17.200872	-24.999991	
